# File created by Blade
# Date/Time:  Fri Jan 16 17:45:47 2015
#---------------------------------------------------------
:version 1.10
:name HOM
:units
  mass 1.0
  length 1.000000
  angle deg
:documentation
     Acclaim Skeleton File
:root
   axis xyz
   order TX TY TZ RX RY RZ
   position 0.000000 0.000000 0.000000
   orientation 0 0 0
:bonedata
   begin
      id 1
      name Spine_dum
      direction 0.000000 1.000000 0.000000
      length 7.170412
      axis 0.0 0.0 0.0 xyz
   end
   begin
      id 2
      name LeftUpLeg_dum
      direction 1.000000 0.000000 0.000000
      length 4.318350
      axis 0.0 0.0 0.0 xyz
   end
   begin
      id 3
      name RightUpLeg_dum
      direction -1.000000 0.000000 0.000000
      length 4.318350
      axis 0.0 0.0 0.0 xyz
   end
   begin
      id 4
      name Spine
      direction 0.000000 1.000000 0.000000
      length 0.000000
      axis 0.0 0.0 0.0 xyz
      dof rx ry rz
   end
   begin
      id 5
      name Spine_dum1
      direction 0.000000 1.000000 0.000000
      length 14.276153
      axis 0.0 0.0 0.0 xyz
   end
   begin
      id 6
      name Spine_dum2
      direction 0.000000 1.000000 0.000000
      length 10.718243
      axis 0.0 0.0 0.0 xyz
   end
   begin
      id 7
      name Spine_dum3
      direction 0.000000 1.000000 0.000000
      length 10.718243
      axis 0.0 0.0 0.0 xyz
   end
   begin
      id 8
      name Head
      direction 0.000000 1.000000 0.000000
      length 4.527550
      axis 0.0 0.0 0.0 xyz
      dof rx ry rz
   end
   begin
      id 9
      name LeftShoulder
      direction 1.000000 0.000000 0.000000
      length 7.058872
      axis 0.0 0.0 -90.0 xyz
      dof rx ry rz
   end
   begin
      id 10
      name LeftArm
      direction 1.000000 0.000000 0.000000
      length 10.955525
      axis 0.0 0.0 -90.0 xyz
      dof rx ry rz
   end
   begin
      id 11
      name LeftForeArm
      direction 1.000000 0.000000 0.000000
      length 8.193716
      axis 0.0 0.0 -90.0 xyz
      dof ry rz rx
   end
   begin
      id 12
      name LeftHand
      direction 0.000000 0.000000 0.000000
      length 0.000000
      axis 0.0 0.0 -90.0 xyz
      dof rx ry rz
   end
   begin
      id 13
      name LeftHand_dum1
      direction 0.000000 0.000000 0.000000
      length 0.000000
      axis 0.0 0.0 -90.0 xyz
   end
   begin
      id 14
      name LeftHand_dum2
      direction 1.000000 0.000000 0.000000
      length 3.937000
      axis 0.0 0.0 -90.0 xyz
   end
   begin
      id 15
      name LeftHandThumb1
      direction 0.000000 0.000000 1.000000
      length 3.937000
      axis 0.0 0.0 -90.0 xyz
      dof rx rz ry
   end
   begin
      id 16
      name RightShoulder
      direction -1.000000 0.000000 0.000000
      length 7.058872
      axis 0.0 0.0 90.0 xyz
      dof rx ry rz
   end
   begin
      id 17
      name RightArm
      direction -1.000000 0.000000 0.000000
      length 10.955525
      axis 0.0 0.0 90.0 xyz
      dof rx ry rz
   end
   begin
      id 18
      name RightForeArm
      direction -1.000000 0.000000 0.000000
      length 8.193716
      axis 0.0 0.0 90.0 xyz
      dof ry rz rx
   end
   begin
      id 19
      name RightHand
      direction 0.000000 0.000000 0.000000
      length 0.000000
      axis 0.0 0.0 90.0 xyz
      dof rx ry rz
   end
   begin
      id 20
      name RightHand_dum1
      direction 0.000000 0.000000 0.000000
      length 0.000000
      axis 0.0 0.0 90.0 xyz
   end
   begin
      id 21
      name RightHand_dum2
      direction -1.000000 0.000000 0.000000
      length 3.937000
      axis 0.0 0.0 90.0 xyz
   end
   begin
      id 22
      name RightHandThumb1
      direction 0.000000 0.000000 1.000000
      length 3.937000
      axis 0.0 0.0 90.0 xyz
      dof rx rz ry
   end
   begin
      id 23
      name LeftUpLeg
      direction 0.000000 -1.000000 0.000000
      length 17.323638
      axis 0.0 0.0 0.0 xyz
      dof rx ry rz
   end
   begin
      id 24
      name LeftLeg
      direction 0.000000 -1.000000 0.000000
      length 16.270368
      axis 0.0 0.0 0.0 xyz
      dof rx ry rz
   end
   begin
      id 25
      name LeftFoot
      direction 0.000000 -0.258819 0.965926
      length 4.922846
      axis 15.0 0.0 0.0 xyz
      dof rx ry rz
   end
   begin
      id 26
      name LeftToeBase
      direction 0.000000 0.000000 1.000000
      length 2.952750
      axis 0.0 0.0 0.0 xyz
      dof rx ry rz
   end
   begin
      id 27
      name RightUpLeg
      direction 0.000000 -1.000000 0.000000
      length 17.323638
      axis 0.0 0.0 0.0 xyz
      dof rx ry rz
   end
   begin
      id 28
      name RightLeg
      direction 0.000000 -1.000000 0.000000
      length 16.270368
      axis 0.0 0.0 0.0 xyz
      dof rx ry rz
   end
   begin
      id 29
      name RightFoot
      direction 0.000000 -0.258819 0.965926
      length 4.922846
      axis 15.0 0.0 0.0 xyz
      dof rx ry rz
   end
   begin
      id 30
      name RightToeBase
      direction 0.000000 0.000000 1.000000
      length 2.952750
      axis 0.0 0.0 0.0 xyz
      dof rx ry rz
   end
:hierarchy
   begin
      root Spine_dum LeftUpLeg_dum RightUpLeg_dum
      Spine_dum Spine
      LeftUpLeg_dum LeftUpLeg
      RightUpLeg_dum RightUpLeg
      Spine Spine_dum1 Spine_dum2 Spine_dum3
      Spine_dum1 Head
      Spine_dum2 LeftShoulder
      Spine_dum3 RightShoulder
      LeftShoulder LeftArm
      LeftArm LeftForeArm
      LeftForeArm LeftHand
      LeftHand LeftHand_dum1 LeftHand_dum2
      LeftHand_dum1 LeftHandThumb1
      RightShoulder RightArm
      RightArm RightForeArm
      RightForeArm RightHand
      RightHand RightHand_dum1 RightHand_dum2
      RightHand_dum1 RightHandThumb1
      LeftUpLeg LeftLeg
      LeftLeg LeftFoot
      LeftFoot LeftToeBase
      RightUpLeg RightLeg
      RightLeg RightFoot
      RightFoot RightToeBase
   end

# File created by Blade
# Date/Time:  Fri Jan 16 17:45:28 2015
# Frame Rate: 120.000 fps
#------------------------------------------------------
:FULLY-SPECIFIED
:DEGREES
3056
root -5.136705 35.195508 -9.457388 -0.720398 -4.994452 -6.473784
Spine -5.790415 -4.565080 9.701895
Head 11.802739 6.440688 -6.902553
LeftShoulder -22.158241 13.360591 -14.794034
LeftArm 15.990900 -3.692885 -77.667965
LeftForeArm 4.946529 0.000000 12.158667
LeftHand 1.779398 -0.000000 -5.630471
LeftHandThumb1 -26.253704 0.000000 33.147579
RightShoulder -16.395434 4.324852 -0.490008
RightArm -42.042024 79.760534 29.857412
RightForeArm 56.619617 0.000000 144.224299
RightHand 26.663591 -0.000000 -4.057011
RightHandThumb1 -24.326973 -0.000000 -32.862282
LeftUpLeg 11.808304 13.895109 7.110078
LeftLeg -9.783333 -0.000000 0.000000
LeftFoot -16.216929 28.030759 -7.842032
LeftToeBase 23.071058 -0.000000 -0.000000
RightUpLeg 7.912872 -4.826261 4.169070
RightLeg -4.080748 -0.000000 0.000000
RightFoot -5.225534 -27.392361 5.083659
RightToeBase 13.469692 -0.000000 -0.000000
3057
root -5.136368 35.195377 -9.454636 -0.724186 -5.004899 -6.483122
Spine -5.805293 -4.557056 9.677654
Head 11.836734 6.395805 -6.829729
LeftShoulder -22.058039 13.453374 -14.755475
LeftArm 15.949014 -3.836492 -77.734410
LeftForeArm 4.981916 -0.000000 12.256209
LeftHand 1.766667 -0.000000 -5.621108
LeftHandThumb1 -26.253704 0.000000 33.147579
RightShoulder -16.254549 4.143177 -0.276713
RightArm -41.702331 79.754777 30.266628
RightForeArm 56.335303 -0.000000 142.666022
RightHand 25.998237 -0.000000 -5.229201
RightHandThumb1 -24.326973 -0.000000 -32.862282
LeftUpLeg 11.821084 13.922760 7.122761
LeftLeg -9.786517 -0.000000 0.000000
LeftFoot -16.208192 27.998689 -7.904150
LeftToeBase 22.930877 -0.000000 -0.000000
RightUpLeg 7.919300 -4.823651 4.175964
RightLeg -4.076394 -0.000000 0.000000
RightFoot -5.225554 -27.386934 5.089537
RightToeBase 13.452988 -0.000000 -0.000000
3058
root -5.135628 35.194892 -9.452754 -0.721340 -5.006454 -6.490584
Spine -5.819931 -4.568764 9.663272
Head 11.838596 6.375656 -6.778326
LeftShoulder -22.034327 13.465546 -14.718943
LeftArm 15.906028 -3.902986 -77.778624
LeftForeArm 5.007248 -0.000000 12.297323
LeftHand 1.775450 0.000000 -5.577316
LeftHandThumb1 -26.253704 0.000000 33.147579
RightShoulder -16.158770 4.441181 -0.191502
RightArm -42.042394 79.221635 29.986260
RightForeArm 56.151791 -0.000000 141.063498
RightHand 25.134252 -0.000000 -6.659949
RightHandThumb1 -24.326973 -0.000000 -32.862282
LeftUpLeg 11.826565 13.948390 7.132191
LeftLeg -9.796296 -0.000000 0.000000
LeftFoot -16.217797 28.013592 -7.808015
LeftToeBase 23.112887 -0.000000 -0.000000
RightUpLeg 7.923869 -4.803764 4.182038
RightLeg -4.084412 -0.000000 0.000000
RightFoot -5.227993 -27.402616 5.119657
RightToeBase 13.435105 -0.000000 -0.000000
3059
root -5.135353 35.194667 -9.450876 -0.711991 -5.003247 -6.495161
Spine -5.822305 -4.569213 9.662769
Head 11.777138 6.348064 -6.791703
LeftShoulder -22.108444 13.406723 -14.710393
LeftArm 15.921411 -3.802332 -77.744384
LeftForeArm 4.980779 -0.000000 12.233146
LeftHand 1.813201 -0.000000 -5.613524
LeftHandThumb1 -26.253704 0.000000 33.147579
RightShoulder -16.035911 4.580788 -0.044742
RightArm -42.109178 78.853319 29.875215
RightForeArm 55.909813 -0.000000 139.359608
RightHand 24.420105 -0.000000 -8.118007
RightHandThumb1 -24.326973 -0.000000 -32.862282
LeftUpLeg 11.823528 13.926794 7.129928
LeftLeg -9.805680 -0.000000 0.000000
LeftFoot -16.208266 28.011683 -7.884343
LeftToeBase 22.942360 -0.000000 -0.000000
RightUpLeg 7.916239 -4.816833 4.185340
RightLeg -4.081235 -0.000000 0.000000
RightFoot -5.230349 -27.385380 5.109762
RightToeBase 13.436854 -0.000000 -0.000000
3060
root -5.134317 35.194458 -9.448593 -0.713642 -5.011581 -6.505937
Spine -5.830464 -4.562765 9.642983
Head 11.780859 6.305986 -6.728338
LeftShoulder -22.010277 13.484061 -14.663662
LeftArm 15.890041 -3.899679 -77.802406
LeftForeArm 4.997922 -0.000000 12.297714
LeftHand 1.818460 -0.000000 -5.564527
LeftHandThumb1 -26.253704 0.000000 33.147579
RightShoulder -15.775214 4.744642 0.012652
RightArm -43.683829 78.433391 28.498016
RightForeArm 56.118273 0.000000 137.500879
RightHand 23.647509 -0.000000 -9.210582
RightHandThumb1 -24.326973 -0.000000 -32.862282
LeftUpLeg 11.829865 13.964914 7.142897
LeftLeg -9.801118 -0.000000 0.000000
LeftFoot -16.209839 27.992393 -7.852553
LeftToeBase 22.961695 -0.000000 -0.000000
RightUpLeg 7.920037 -4.811831 4.191353
RightLeg -4.076585 -0.000000 0.000000
RightFoot -5.232865 -27.369915 5.147557
RightToeBase 13.406533 -0.000000 -0.000000
3061
root -5.132920 35.194184 -9.447645 -0.706497 -5.005668 -6.511068
Spine -5.835909 -4.564569 9.629966
Head 11.744383 6.262023 -6.704409
LeftShoulder -21.985673 13.501730 -14.634535
LeftArm 15.893642 -3.906559 -77.819734
LeftForeArm 4.988411 -0.000000 12.297387
LeftHand 1.826765 -0.000000 -5.543824
LeftHandThumb1 -26.253704 0.000000 33.147579
RightShoulder -15.544316 4.893294 0.060907
RightArm -44.553187 77.956545 27.874700
RightForeArm 56.085904 -0.000000 135.755899
RightHand 22.648849 -0.000000 -11.135699
RightHandThumb1 -24.326973 -0.000000 -32.862282
LeftUpLeg 11.827739 13.938621 7.141620
LeftLeg -9.812321 -0.000000 0.000000
LeftFoot -16.226195 28.044044 -7.785696
LeftToeBase 23.108165 -0.000000 -0.000000
RightUpLeg 7.909070 -4.807358 4.193260
RightLeg -4.064678 -0.000000 0.000000
RightFoot -5.242607 -27.374998 5.160386
RightToeBase 13.416351 -0.000000 -0.000000
3062
root -5.133040 35.193699 -9.444848 -0.712926 -5.009173 -6.522955
Spine -5.811833 -4.556392 9.635126
Head 11.665870 6.215364 -6.728999
LeftShoulder -22.032390 13.463127 -14.621127
LeftArm 15.926872 -3.785237 -77.782123
LeftForeArm 4.953987 -0.000000 12.231091
LeftHand 1.858450 -0.000000 -5.556738
LeftHandThumb1 -26.253704 0.000000 33.147579
RightShoulder -15.444431 4.969782 0.116974
RightArm -43.997016 77.487164 28.510746
RightForeArm 56.348834 -0.000000 133.852109
RightHand 21.836126 0.000000 -12.627288
RightHandThumb1 -24.326973 -0.000000 -32.862282
LeftUpLeg 11.837776 13.956174 7.156221
LeftLeg -9.803942 -0.000000 0.000000
LeftFoot -16.224720 28.015323 -7.822095
LeftToeBase 22.957092 -0.000000 -0.000000
RightUpLeg 7.919355 -4.793467 4.205321
RightLeg -4.062005 -0.000000 0.000000
RightFoot -5.249205 -27.384968 5.167439
RightToeBase 13.452595 -0.000000 -0.000000
3063
root -5.133104 35.194386 -9.448035 -0.693947 -4.944428 -6.504940
Spine -5.831451 -4.610984 9.575702
Head 11.626545 6.181978 -6.674990
LeftShoulder -22.004255 13.472179 -14.579633
LeftArm 15.946933 -3.759785 -77.769994
LeftForeArm 4.897125 -0.000000 12.212005
LeftHand 1.906454 -0.000000 -5.509398
LeftHandThumb1 -26.253704 0.000000 33.147579
RightShoulder -15.310053 5.030470 0.254517
RightArm -43.631764 77.029241 28.880572
RightForeArm 56.824272 -0.000000 131.911104
RightHand 21.077168 -0.000000 -13.867759
RightHandThumb1 -24.326973 -0.000000 -32.862282
LeftUpLeg 11.773960 13.865167 7.122396
LeftLeg -9.765080 -0.000000 0.000000
LeftFoot -16.241611 28.072343 -7.765411
LeftToeBase 23.069116 -0.000000 -0.000000
RightUpLeg 7.897455 -4.824307 4.192057
RightLeg -4.061870 -0.000000 0.000000
RightFoot -5.256784 -27.413260 5.160686
RightToeBase 13.437676 -0.000000 -0.000000
3064
root -5.132948 35.193885 -9.446602 -0.699570 -4.933622 -6.509854
Spine -5.820099 -4.608471 9.560488
Head 11.590090 6.133373 -6.659916
LeftShoulder -21.968909 13.487903 -14.542978
LeftArm 15.967315 -3.732705 -77.770299
LeftForeArm 4.849615 0.000000 12.187533
LeftHand 1.895286 -0.000000 -5.503038
LeftHandThumb1 -26.253704 0.000000 33.147579
RightShoulder -15.186965 5.061495 0.360372
RightArm -43.276923 76.598566 29.261524
RightForeArm 57.479460 -0.000000 129.938829
RightHand 20.418699 -0.000000 -15.238933
RightHandThumb1 -24.326973 -0.000000 -32.862282
LeftUpLeg 11.773481 13.858233 7.128086
LeftLeg -9.752557 -0.000000 0.000000
LeftFoot -16.266430 28.076034 -7.765963
LeftToeBase 23.133462 -0.000000 -0.000000
RightUpLeg 7.900228 -4.844396 4.196293
RightLeg -4.051484 -0.000000 0.000000
RightFoot -5.258882 -27.414868 5.155907
RightToeBase 13.413042 -0.000000 -0.000000
